# xmcd
#
# Track frame offsets:
#	150
#	25640
#	49079
#	71925
#	95379
#	114425
#	142326
#	157585
#	173219
#
# Disc length: 2468 seconds
#
# Revision: 3592983141
# Processed by: cddbd v1.5.2PL0 Copyright (c) Steve Scherf et al.
# Submitted via: EZCDAudioConverter 8.0.2.1
#
DISCID=7309a209
DTITLE=Various Artist - st. Phạm Duy. Trường Ca Hàn Mặc Tử
DYEAR=2011
DGENRE=World Pop
TTITLE0=Duy Quang - Tình quê
TTITLE1=Thái Hiền - Đây thôn Vĩ Dạ
TTITLE2=Tuấn Ngọc - Đà Lạt trăng mờ
TTITLE3=Tuấn Ngọc, Thái Hiền - Trăng sao rớt rụng
TTITLE4=Tuấn Ngọc - Hồn là ai? Hồn là ai? 
TTITLE5=Tuấn Ngọc - Trút linh hồn
TTITLE6=Duy Quang, Thái Hiền, Thải Thảo - Lạy bà là Đấng tình truyền thánh vẹn
TTITLE7=Thái Hiền and Thái Thảo - Hỡi sứ tThần Thiên Chúa Gabriel
TTITLE8=Duy Quang, Thái Hiền, Tuấn Ngọc, Thái Thảo - Phượng Trì, ôi Phượng Trì
TTITLE8=!
EXTD=
EXTT0=
EXTT1=
EXTT2=
EXTT3=
EXTT4=
EXTT5=
EXTT6=
EXTT7=
EXTT8=
PLAYORDER=
